<?xml version="1.0" standalone="no"?>
<!DOCTYPE svg PUBLIC "-//W3C//DTD SVG 20010904//EN"
 "http://www.w3.org/TR/2001/REC-SVG-20010904/DTD/svg10.dtd">
<svg version="1.0" xmlns="http://www.w3.org/2000/svg"
 width="1702.000000pt" height="663.000000pt" viewBox="0 0 1702.000000 663.000000"
 preserveAspectRatio="xMidYMid meet">

<g transform="translate(0.000000,663.000000) scale(0.100000,-0.100000)"
fill="#000000" stroke="none">
<path d="M15570 5610 c-20 -20 -20 -23 -20 -1364 l0 -1343 21 -27 20 -26 248
0 c239 0 249 1 267 21 18 20 19 46 22 535 l3 513 355 3 356 3 19 24 c17 21 19
41 19 213 0 187 0 189 -25 213 l-24 25 -350 0 -351 0 -2 600 c-2 475 -6 602
-16 612 -10 10 -75 14 -267 16 -245 3 -255 2 -275 -18z"/>
<path d="M10820 5510 c-19 -19 -20 -33 -20 -250 l0 -230 -940 0 -940 0 0 220
0 221 -25 24 -24 25 -239 0 c-228 0 -241 -1 -266 -21 l-27 -21 3 -782 c3 -716
5 -785 21 -834 24 -71 66 -116 135 -144 56 -23 62 -23 565 -26 l507 -3 0 -280
0 -279 -955 0 -956 0 -24 -25 c-25 -24 -25 -26 -25 -205 0 -196 8 -232 52
-244 13 -3 1003 -6 2201 -6 1637 0 2184 3 2200 12 44 23 46 34 46 228 0 194
-2 205 -46 228 -16 9 -268 12 -967 12 l-946 0 0 279 0 280 503 3 c460 3 506 5
551 22 70 27 122 84 146 163 19 63 20 93 20 837 0 424 -4 776 -8 782 -20 30
-55 34 -286 34 -223 0 -237 -1 -256 -20z m-21 -1107 c0 -199 -8 -233 -59 -250
-44 -15 -1707 -18 -1759 -3 -58 16 -60 26 -61 233 l0 187 940 0 940 0 -1 -167z"/>
<path d="M14344 5466 c-18 -14 -19 -33 -24 -378 l-5 -363 -527 -3 -527 -2 -3
355 c-3 324 -5 356 -21 372 -16 16 -43 18 -258 21 -207 3 -244 1 -265 -13
l-24 -16 2 -1022 3 -1022 28 -58 c19 -38 42 -66 66 -83 79 -52 107 -54 998
-54 571 0 838 3 875 11 111 24 175 79 206 179 16 50 17 138 17 1053 l0 999
-24 19 c-21 18 -42 19 -260 19 -189 0 -241 -3 -257 -14z m-26 -1441 c3 -263
-1 -307 -31 -335 -20 -19 -36 -20 -498 -20 -467 0 -477 0 -503 21 l-26 20 0
275 0 274 528 -2 527 -3 3 -230z"/>
<path d="M3452 3123 l-54 -4 4 -167 c3 -163 4 -168 32 -220 55 -99 149 -161
276 -181 40 -7 303 -11 688 -11 l622 0 0 79 c0 249 -111 401 -350 476 -46 15
-116 19 -415 25 -365 8 -706 9 -803 3z"/>
<path d="M1745 3109 c-165 -27 -305 -121 -369 -247 -51 -101 -51 -100 -48
-1197 2 -569 8 -1042 13 -1070 30 -162 163 -289 359 -342 61 -17 158 -18 1475
-18 1320 0 1414 1 1474 18 200 55 328 180 360 351 7 39 11 280 11 703 l0 643
-242 -2 -243 -3 -5 -440 -5 -440 -29 -53 c-55 -99 -149 -161 -276 -181 -84
-14 -2011 -15 -2093 -1 -121 19 -227 90 -274 184 -19 38 -28 76 -35 160 -13
145 -3 1021 12 1094 22 101 102 188 217 233 57 23 68 24 456 27 l397 3 0 295
0 294 -552 -1 c-304 -1 -575 -5 -603 -10z"/>
<path d="M14455 2769 c-246 -18 -517 -84 -703 -170 -166 -76 -331 -207 -412
-324 -44 -64 -97 -179 -116 -255 -26 -96 -23 -291 4 -393 106 -394 517 -658
1132 -728 136 -15 487 -16 615 0 503 60 890 253 1076 538 89 136 123 263 116
428 -8 187 -71 335 -205 477 -253 269 -672 418 -1212 432 -96 3 -229 0 -295
-5z m445 -459 c326 -40 564 -168 648 -348 23 -49 27 -70 27 -147 0 -80 -4 -96
-29 -144 -58 -111 -192 -207 -370 -265 -271 -89 -742 -86 -1010 6 -227 78
-355 206 -372 374 -7 66 12 157 47 225 77 153 311 264 634 302 69 9 347 6 425
-3z"/>
<path d="M8373 2320 c-12 -5 -26 -18 -32 -29 -15 -27 -15 -947 0 -1043 20
-128 57 -184 147 -220 l57 -23 1474 -3 c1314 -2 1476 -1 1497 13 24 15 24 16
24 220 l0 204 -26 20 c-27 21 -27 21 -1293 21 -1130 0 -1269 2 -1289 16 l-22
15 0 374 c0 253 -4 382 -11 398 -6 14 -22 30 -36 36 -29 13 -457 14 -490 1z"/>
</g>
</svg>
